<?xml version="1.0" encoding="utf-8"?>
<svg viewBox="0 0 818 816" xmlns="http://www.w3.org/2000/svg">
  <g transform="matrix(0.1, 0, 0, -0.1, 0, 816)" fill="#000000" stroke="none">
    <path d="M3574 7759 l-351 -404 -99 -29 c-414 -122 -825 -338 -1169 -612 -141 -113 -386 -358 -499 -499 -434 -545 -688 -1185 -742 -1867 l-6 -88 325 0 325 0 7 63 c58 547 228 983 549 1412 109 145 361 400 501 506 431 327 898 510 1436 564 l67 6 7 522 c3 287 5 591 3 676 l-3 155 -351 -405z" style="fill: rgb(48, 79, 254);"/>
    <path d="M4260 7136 l0 -324 68 -7 c460 -46 879 -190 1252 -433 320 -207 632 -525 835 -852 214 -345 351 -744 395 -1157 l13 -113 262 0 c169 0 265 -4 267 -10 2 -7 144 -9 416 -8 l413 3 -396 345 c-218 190 -404 352 -413 360 -9 8 -32 65 -50 125 -126 415 -332 805 -608 1150 -113 141 -358 386 -499 499 -450 359 -994 605 -1550 701 -97 17 -332 45 -377 45 l-28 0 0 -324z" style="fill: rgb(0, 27, 145);"/>
    <path d="M25 3903 c17 -14 197 -171 400 -348 204 -177 377 -331 386 -341 9 -11 30 -66 48 -124 123 -395 326 -774 597 -1115 113 -141 358 -386 499 -499 450 -359 994 -605 1550 -701 106 -18 334 -45 388 -45 l37 0 0 314 0 314 -72 7 c-457 43 -884 190 -1258 433 -320 207 -632 525 -835 852 -214 344 -351 745 -395 1156 l-12 111 -397 6 c-218 4 -524 7 -681 7 l-285 -1 30 -26z" style="fill: rgb(0, 27, 145);"/>
    <path d="M6810 3808 c-44 -414 -181 -813 -395 -1158 -203 -327 -515 -645 -835 -852 -374 -243 -801 -390 -1256 -433 l-72 -7 -7 -531 c-3 -293 -5 -599 -3 -680 l3 -148 180 207 c99 115 264 305 368 423 l188 215 92 28 c409 126 804 335 1142 604 141 113 386 358 499 499 433 544 685 1177 741 1863 l7 82 -320 0 -319 0 -13 -112z" style="fill: rgb(48, 79, 254);"/>
  </g>
  <path style="stroke-width: 6px; fill: rgb(224, 224, 224);" d="M 218.923 513.921 L 513.336 175.889 L 522.878 572.532 L 412.472 433.502" transform="matrix(0.942196, 0.335063, -0.335063, 0.942196, 146.823669, -102.644035)"/>
</svg>